<svg xmlns="http://www.w3.org/2000/svg" viewBox="0 0 130.34 146.93"><defs><style>.cls-1{fill:#e4b094;}</style></defs><title>Asset 2</title><g id="Layer_2" data-name="Layer 2"><g id="Layer_1-2" data-name="Layer 1"><path class="cls-1" d="M95.68,80.39a.11.11,0,0,1-.11.11c-4,6.88-10.53,12.08-17.4,15.41a65.36,65.36,0,0,1-8.1,3.22A77.32,77.32,0,0,1,60.43,121C46.79,142,29.6,139.6,20,133.28,1.22,120.75-3.66,89.59,2.55,64.31-3.66,35.71,9.54-.21,38.25,0,64.53.12,73.62,34.82,74.4,61.21a130.23,130.23,0,0,1-3.89,36.25,47.47,47.47,0,0,0,7-2.88c6.66-3.32,12.86-8.42,16-15.19A1.22,1.22,0,0,1,95.68,80.39ZM3.43,60.88c3.44-11.54,9.21-21.62,17.19-27.61.78-.67,1.88.55,1.22,1.33C13.64,44.36,9,59.44,7.66,74.85a42.28,42.28,0,0,0,7,11C27.5,100.12,48.44,103,65.53,98.91a160.45,160.45,0,0,0,4.54-37.7c.34-25.5-6.32-59.43-31.82-59.76C12,1.22-1,33.6,3.43,60.88Zm61.76,39.58c-18.51,4.33-39.24.33-51.66-13.64A41.16,41.16,0,0,1,7.42,78c-1.32,21.84,3.77,43.9,14.42,52.89,9.09,7.65,25.61,8.76,36.26-11.2A88.25,88.25,0,0,0,65.19,100.46Z"/><path class="cls-1" d="M129.16,89.59a100.17,100.17,0,0,0-17,3.77c-1.85-9.09-7.26-16.23-16.24-18.36a21.93,21.93,0,0,0-6.08-.78l3-1.73c8.31-5.22,14.88-11.88,17.68-21.35,3.19-10.63.77-22.32-9.76-25.8-7.25-2.32-14-.1-20,4.54A35.58,35.58,0,0,0,71.71,41l-1,3.61c0,.69,0,1.38-.1,2.06,0,.13,0,.23,0,.35,2.44-6.34,5.72-12.08,11-15.86,4.73-3.48,10.82-5.22,16-2.81,7.43,3.58,8.79,12.76,6.66,21.16-2,7.83-7.72,15.17-13.52,20.39a48.66,48.66,0,0,1-6.47,4.73c-8.51,1.26-17.49,7.13-16,6.19,1.81-1.2,2.12.9,2.79,1.09S76,81.08,84.44,77a22.73,22.73,0,0,1,10.24,1.84c6.95,3,10.72,9.08,11.78,16.41l-3.09,1.36C89.74,102.73,79.61,111.52,72.84,122,60,141.86,65.69,153,86.08,143.5c19.8-9.18,28.89-31.59,26.37-48.5a100.43,100.43,0,0,1,17-3.38A1,1,0,1,0,129.16,89.59Zm-45.6,48.88c-21.26,12.28-16.23-5.69-9.66-15.84,6.47-9.95,16.91-18.93,30.15-24.54a25.71,25.71,0,0,1,2.6-1C107.82,111.23,99.31,129.29,83.56,138.47Z"/></g></g></svg>