<svg xmlns="http://www.w3.org/2000/svg" viewBox="0 0 591.95 146.93"><defs><style>.cls-1{fill:#939598;}.cls-2{fill:none;stroke:#a87e2d;stroke-miterlimit:10;stroke-width:2.13px;}.cls-3{fill:#e4b094;}</style></defs><title>Asset 1</title><g id="Layer_2" data-name="Layer 2"><g id="Layer_1-2" data-name="Layer 1"><path class="cls-1" d="M150.88,82.85h-1.76V60.5h1.76Z"/><path class="cls-1" d="M173.07,82.85h-1.76L157.8,63.66V82.85H156V60.5h1.77l13.51,19.18V60.5h1.76Z"/><path class="cls-1" d="M195.82,71.66a11.83,11.83,0,0,1-2.63,8,10,10,0,0,1-7.77,3.17h-7V60.5h7.94a8.58,8.58,0,0,1,7.31,3.32A12.91,12.91,0,0,1,195.82,71.66Zm-1.76,0a11.2,11.2,0,0,0-1.83-6.79q-1.93-2.61-6.07-2.61h-6V81.08h5.39a8.92,8.92,0,0,0,3.64-.7,8,8,0,0,0,2.75-2A10.13,10.13,0,0,0,194.06,71.66Z"/><path class="cls-1" d="M217.79,82.85H216V72.09H202.52V82.85h-1.78V60.5h1.78v9.83H216V60.5h1.76Z"/><path class="cls-1" d="M224.64,82.85h-1.76V60.5h1.76Z"/><path class="cls-1" d="M243.83,82.85l-4.31-9.92h-8v9.92h-1.76V60.5h9.14q7,0,7,6,0,4.52-4.55,6.07c.7,1.63,1.45,3.35,2.23,5.16s1.52,3.5,2.2,5.1Zm.34-16.4c0-2.79-1.7-4.19-5.08-4.19h-7.54v8.87h7.26A6.16,6.16,0,0,0,242.65,70l0,0A4.32,4.32,0,0,0,244.17,66.45Z"/><path class="cls-1" d="M269.17,82.85h-1.92l-2.75-7h-9.86c-.45,1.12-.93,2.28-1.43,3.5s-.94,2.38-1.36,3.48h-2l9-22.35h1.58Zm-5.35-8.75c-.38-1-.73-1.91-1.07-2.77s-.68-1.71-1-2.56-.67-1.71-1-2.58-.71-1.84-1.1-2.87q-1.11,2.76-2.16,5.33c-.69,1.71-1.41,3.53-2.18,5.45Z"/><path class="cls-1" d="M303.08,71.66a12.57,12.57,0,0,1-2.55,8.11,10.09,10.09,0,0,1-15.4,0,12.62,12.62,0,0,1-2.54-8.11,12.58,12.58,0,0,1,2.54-8.09,10.09,10.09,0,0,1,15.4,0A12.53,12.53,0,0,1,303.08,71.66Zm-1.77,0a10.89,10.89,0,0,0-2.14-7,8.35,8.35,0,0,0-12.67,0,10.89,10.89,0,0,0-2.15,7,11,11,0,0,0,2.15,7,8.33,8.33,0,0,0,12.67,0A11,11,0,0,0,301.31,71.66Z"/><path class="cls-1" d="M322.2,82.85l-4.31-9.92h-8v9.92h-1.76V60.5h9.14q7,0,7,6c0,3-1.51,5-4.55,6.07.7,1.63,1.45,3.35,2.23,5.16s1.52,3.5,2.2,5.1Zm.34-16.4q0-4.19-5.09-4.19h-7.53v8.87h7.26A6.14,6.14,0,0,0,321,70l0,0A4.32,4.32,0,0,0,322.54,66.45Z"/><path class="cls-1" d="M345,62.26h-7.56V82.85h-1.74V62.26h-7.56V60.5H345Z"/><path class="cls-1" d="M364.25,82.85H349V60.5h15.09v1.76H350.8v8.07h12.55v1.76H350.8v9h13.45Z"/><path class="cls-1" d="M388,73a14,14,0,0,1-.33,3.32,10.66,10.66,0,0,1-.87,2.42,7.38,7.38,0,0,1-1.23,1.75,11.4,11.4,0,0,1-1.44,1.29,11,11,0,0,1-5.76,1.61,9.58,9.58,0,0,1-7.82-3.5h0a12.42,12.42,0,0,1-2.63-8.18,12.27,12.27,0,0,1,2.69-8.12h0A9.47,9.47,0,0,1,378.32,60a10.37,10.37,0,0,1,3.33.53A9.58,9.58,0,0,1,384.46,62a7.66,7.66,0,0,1,2.1,2.59,11.46,11.46,0,0,1,1.11,3.67h-1.75a8,8,0,0,0-14-3.6,10.52,10.52,0,0,0-2.26,7,10.44,10.44,0,0,0,2.22,7,7.88,7.88,0,0,0,6.51,2.92,7.17,7.17,0,0,0,5.83-2.46,7.28,7.28,0,0,0,1.34-2.46,11.83,11.83,0,0,0,.58-3.11H378V71.78h9.85Z"/><path class="cls-1" d="M411.17,82.85h-1.93l-2.75-7h-9.86c-.45,1.12-.93,2.28-1.42,3.5s-.95,2.38-1.36,3.48h-2l9-22.35h1.58Zm-5.36-8.75-1.07-2.77c-.35-.86-.68-1.71-1-2.56s-.67-1.71-1-2.58-.7-1.84-1.1-2.87l-2.15,5.33-2.19,5.45Z"/><path class="cls-1" d="M441.6,76.49a5.83,5.83,0,0,1-2.33,4.9,8.41,8.41,0,0,1-5.17,1.46h-9.24V60.5h9.61A7,7,0,0,1,439.05,62a5.81,5.81,0,0,1,.5,8.16,4.74,4.74,0,0,1-.65.55c-.23.17-.45.32-.68.47A5.63,5.63,0,0,1,440,72.4h0A5.59,5.59,0,0,1,441.6,76.49Zm-2.42-10.13a4.15,4.15,0,0,0-.36-1.75,4,4,0,0,0-.95-1.35,5.62,5.62,0,0,0-3.4-1h-7.84v8.07h7.84a5.24,5.24,0,0,0,3.34-1A3.5,3.5,0,0,0,439.18,66.36Zm.65,10.16a3.9,3.9,0,0,0-1.55-3.35,5.39,5.39,0,0,0-1.65-.8,7.59,7.59,0,0,0-2.16-.28h-7.84v9h7.74A6.35,6.35,0,0,0,438.28,80,4,4,0,0,0,439.83,76.52Z"/><path class="cls-1" d="M461.74,82.85H446.52V60.5h15.09v1.76H448.29v8.07h12.55v1.76H448.29v9h13.45Z"/><path class="cls-1" d="M479.74,82.85l-4.3-9.92h-8v9.92h-1.76V60.5h9.13q7,0,7,6,0,4.52-4.56,6.07l2.24,5.16c.78,1.81,1.52,3.5,2.2,5.1Zm.34-16.4q0-4.19-5.08-4.19h-7.53v8.87h7.25A6.17,6.17,0,0,0,478.57,70l0,0A4.32,4.32,0,0,0,480.08,66.45Z"/><path class="cls-1" d="M507.79,82.85h-1.73L506,64.62q-2,4.56-4,9.14l-3.93,9.09h-1.43l-8-18.2v18.2H486.9V60.5h1.92L497.38,80c1.4-3.23,2.83-6.48,4.26-9.77s2.84-6.54,4.23-9.76h1.92Z"/><path class="cls-1" d="M529.67,74.35a13,13,0,0,1-.48,3.72,7.4,7.4,0,0,1-1.51,2.79,9.22,9.22,0,0,1-12.58,0,9.81,9.81,0,0,1-2-6.51V60.5h1.77V74.35c0,4.81,2.17,7.23,6.5,7.23s6.51-2.42,6.51-7.23V60.5h1.77Z"/><path class="cls-1" d="M552.29,71.66a11.78,11.78,0,0,1-2.64,8,9.93,9.93,0,0,1-7.77,3.17h-7V60.5h7.94a8.57,8.57,0,0,1,7.3,3.32A12.91,12.91,0,0,1,552.29,71.66Zm-1.77,0a11.2,11.2,0,0,0-1.82-6.79c-1.3-1.74-3.31-2.61-6.07-2.61h-6V81.08H542a9,9,0,0,0,3.65-.7,8.14,8.14,0,0,0,2.74-2A10.12,10.12,0,0,0,550.52,71.66Z"/><path class="cls-1" d="M572.39,82.85H557.18V60.5h15.1v1.76H559v8.07H571.5v1.76H559v9h13.44Z"/><path class="cls-1" d="M592,82.85H575.31V81.26l14.07-19H576.12V60.5H591.7v1.58l-14,19H592Z"/><line class="cls-2" x1="139.8" y1="105.88" x2="139.8" y2="41.04"/><path class="cls-3" d="M95.68,80.39a.11.11,0,0,1-.11.11c-4,6.88-10.53,12.08-17.4,15.41a65.36,65.36,0,0,1-8.1,3.22A77.32,77.32,0,0,1,60.43,121C46.79,142,29.6,139.6,20,133.28,1.22,120.75-3.66,89.59,2.55,64.31-3.66,35.71,9.54-.21,38.25,0,64.53.12,73.62,34.82,74.4,61.21a130.23,130.23,0,0,1-3.89,36.25,47.47,47.47,0,0,0,7-2.88c6.66-3.32,12.86-8.42,16-15.19A1.22,1.22,0,0,1,95.68,80.39ZM3.43,60.88c3.44-11.54,9.21-21.62,17.19-27.61.78-.67,1.88.55,1.22,1.33C13.64,44.36,9,59.44,7.66,74.85a42.28,42.28,0,0,0,7,11C27.5,100.12,48.44,103,65.53,98.91a160.45,160.45,0,0,0,4.54-37.7c.34-25.5-6.32-59.43-31.82-59.76C12,1.22-1,33.6,3.43,60.88Zm61.76,39.58c-18.51,4.33-39.24.33-51.66-13.64A41.16,41.16,0,0,1,7.42,78c-1.32,21.84,3.77,43.9,14.42,52.89,9.09,7.65,25.61,8.76,36.26-11.2A88.25,88.25,0,0,0,65.19,100.46Z"/><path class="cls-3" d="M129.16,89.59a100.17,100.17,0,0,0-17,3.77c-1.85-9.09-7.26-16.23-16.24-18.36a21.93,21.93,0,0,0-6.08-.78l3-1.73c8.31-5.22,14.88-11.88,17.68-21.35,3.19-10.63.77-22.32-9.76-25.8-7.25-2.32-14-.1-20,4.54A35.58,35.58,0,0,0,71.71,41l-1,3.61c0,.69,0,1.38-.1,2.06,0,.13,0,.23,0,.35,2.44-6.34,5.72-12.08,11-15.86,4.73-3.48,10.82-5.22,16-2.81,7.43,3.58,8.79,12.76,6.66,21.16-2,7.83-7.72,15.17-13.52,20.39a48.66,48.66,0,0,1-6.47,4.73c-8.51,1.26-17.49,7.13-16,6.19,1.81-1.2,2.12.9,2.79,1.09S76,81.08,84.44,77a22.73,22.73,0,0,1,10.24,1.84c6.95,3,10.72,9.08,11.78,16.41l-3.09,1.36C89.74,102.73,79.61,111.52,72.84,122,60,141.86,65.69,153,86.08,143.5c19.8-9.18,28.89-31.59,26.37-48.5a100.43,100.43,0,0,1,17-3.38A1,1,0,1,0,129.16,89.59Zm-45.6,48.88c-21.26,12.28-16.23-5.69-9.66-15.84,6.47-9.95,16.91-18.93,30.15-24.54a25.71,25.71,0,0,1,2.6-1C107.82,111.23,99.31,129.29,83.56,138.47Z"/></g></g></svg>